<mxfile host="app.diagrams.net" modified="2023-12-05T17:43:36.597Z" agent="Mozilla/5.0 (Windows NT 10.0; Win64; x64) AppleWebKit/537.36 (KHTML, like Gecko) Chrome/119.0.0.0 Safari/537.36" etag="xf2eQEj8W_Ld-_i2idwE" version="22.1.5" type="github">
  <diagram name="Page-1" id="WdMziHmszbvbufCrUDlD">
    <mxGraphModel dx="1050" dy="566" grid="1" gridSize="10" guides="1" tooltips="1" connect="1" arrows="1" fold="1" page="1" pageScale="1" pageWidth="850" pageHeight="1100" math="0" shadow="0">
      <root>
        <mxCell id="0" />
        <mxCell id="1" parent="0" />
        <mxCell id="VLCRKHYYq3p2HpZZ45hr-1" value="l" style="shape=umlLifeline;perimeter=lifelinePerimeter;whiteSpace=wrap;html=1;container=1;dropTarget=0;collapsible=0;recursiveResize=0;outlineConnect=0;portConstraint=eastwest;newEdgeStyle={&quot;curved&quot;:0,&quot;rounded&quot;:0};participant=umlActor;" parent="1" vertex="1">
          <mxGeometry x="120" y="10" width="20" height="650" as="geometry" />
        </mxCell>
        <mxCell id="VLCRKHYYq3p2HpZZ45hr-6" value="Loan applicant" style="text;html=1;align=center;verticalAlign=middle;resizable=0;points=[];autosize=1;strokeColor=none;fillColor=none;" parent="1" vertex="1">
          <mxGeometry x="80" y="50" width="100" height="30" as="geometry" />
        </mxCell>
        <mxCell id="VLCRKHYYq3p2HpZZ45hr-2" value="Web&lt;br&gt;Browser" style="shape=umlLifeline;perimeter=lifelinePerimeter;whiteSpace=wrap;html=1;container=1;dropTarget=0;collapsible=0;recursiveResize=0;outlineConnect=0;portConstraint=eastwest;newEdgeStyle={&quot;curved&quot;:0,&quot;rounded&quot;:0};" parent="1" vertex="1">
          <mxGeometry x="240" y="40" width="100" height="630" as="geometry" />
        </mxCell>
        <mxCell id="VLCRKHYYq3p2HpZZ45hr-3" value="Web&lt;br&gt;Server&lt;br&gt;" style="shape=umlLifeline;perimeter=lifelinePerimeter;whiteSpace=wrap;html=1;container=1;dropTarget=0;collapsible=0;recursiveResize=0;outlineConnect=0;portConstraint=eastwest;newEdgeStyle={&quot;curved&quot;:0,&quot;rounded&quot;:0};" parent="1" vertex="1">
          <mxGeometry x="440" y="40" width="100" height="630" as="geometry" />
        </mxCell>
        <mxCell id="VLCRKHYYq3p2HpZZ45hr-9" value="" style="html=1;points=[[0,0,0,0,5],[0,1,0,0,-5],[1,0,0,0,5],[1,1,0,0,-5]];perimeter=orthogonalPerimeter;outlineConnect=0;targetShapes=umlLifeline;portConstraint=eastwest;newEdgeStyle={&quot;curved&quot;:0,&quot;rounded&quot;:0};" parent="VLCRKHYYq3p2HpZZ45hr-3" vertex="1">
          <mxGeometry x="45" y="60" width="10" height="490" as="geometry" />
        </mxCell>
        <mxCell id="VLCRKHYYq3p2HpZZ45hr-4" value="Database&lt;br&gt;Server" style="shape=umlLifeline;perimeter=lifelinePerimeter;whiteSpace=wrap;html=1;container=1;dropTarget=0;collapsible=0;recursiveResize=0;outlineConnect=0;portConstraint=eastwest;newEdgeStyle={&quot;curved&quot;:0,&quot;rounded&quot;:0};" parent="1" vertex="1">
          <mxGeometry x="640" y="40" width="100" height="630" as="geometry" />
        </mxCell>
        <mxCell id="VLCRKHYYq3p2HpZZ45hr-10" value="" style="html=1;points=[[0,0,0,0,5],[0,1,0,0,-5],[1,0,0,0,5],[1,1,0,0,-5]];perimeter=orthogonalPerimeter;outlineConnect=0;targetShapes=umlLifeline;portConstraint=eastwest;newEdgeStyle={&quot;curved&quot;:0,&quot;rounded&quot;:0};" parent="VLCRKHYYq3p2HpZZ45hr-4" vertex="1">
          <mxGeometry x="45" y="70" width="10" height="170" as="geometry" />
        </mxCell>
        <mxCell id="VLCRKHYYq3p2HpZZ45hr-29" value="" style="html=1;points=[[0,0,0,0,5],[0,1,0,0,-5],[1,0,0,0,5],[1,1,0,0,-5]];perimeter=orthogonalPerimeter;outlineConnect=0;targetShapes=umlLifeline;portConstraint=eastwest;newEdgeStyle={&quot;curved&quot;:0,&quot;rounded&quot;:0};" parent="VLCRKHYYq3p2HpZZ45hr-4" vertex="1">
          <mxGeometry x="45" y="330" width="10" height="210" as="geometry" />
        </mxCell>
        <mxCell id="VLCRKHYYq3p2HpZZ45hr-5" value="Alternative" style="shape=umlFrame;whiteSpace=wrap;html=1;pointerEvents=0;" parent="1" vertex="1">
          <mxGeometry x="90" y="150" width="650" height="180" as="geometry" />
        </mxCell>
        <mxCell id="VLCRKHYYq3p2HpZZ45hr-8" value="" style="html=1;points=[[0,0,0,0,5],[0,1,0,0,-5],[1,0,0,0,5],[1,1,0,0,-5]];perimeter=orthogonalPerimeter;outlineConnect=0;targetShapes=umlLifeline;portConstraint=eastwest;newEdgeStyle={&quot;curved&quot;:0,&quot;rounded&quot;:0};" parent="1" vertex="1">
          <mxGeometry x="285" y="90" width="10" height="300" as="geometry" />
        </mxCell>
        <mxCell id="VLCRKHYYq3p2HpZZ45hr-11" value="Login user" style="html=1;verticalAlign=bottom;endArrow=block;curved=0;rounded=0;" parent="1" target="VLCRKHYYq3p2HpZZ45hr-9" edge="1">
          <mxGeometry width="80" relative="1" as="geometry">
            <mxPoint x="295" y="120" as="sourcePoint" />
            <mxPoint x="480" y="120" as="targetPoint" />
            <Array as="points">
              <mxPoint x="335" y="120" />
              <mxPoint x="360" y="120" />
            </Array>
            <mxPoint as="offset" />
          </mxGeometry>
        </mxCell>
        <mxCell id="VLCRKHYYq3p2HpZZ45hr-7" value="Login details" style="html=1;verticalAlign=bottom;endArrow=block;curved=0;rounded=0;" parent="1" target="VLCRKHYYq3p2HpZZ45hr-8" edge="1">
          <mxGeometry x="0.0013" width="80" relative="1" as="geometry">
            <mxPoint x="130" y="100" as="sourcePoint" />
            <mxPoint x="280" y="100" as="targetPoint" />
            <Array as="points">
              <mxPoint x="190" y="100" />
              <mxPoint x="210" y="100" />
            </Array>
            <mxPoint as="offset" />
          </mxGeometry>
        </mxCell>
        <mxCell id="VLCRKHYYq3p2HpZZ45hr-12" value="Fetch user" style="html=1;verticalAlign=bottom;endArrow=block;curved=0;rounded=0;" parent="1" edge="1">
          <mxGeometry width="80" relative="1" as="geometry">
            <mxPoint x="495" y="130" as="sourcePoint" />
            <mxPoint x="685" y="130" as="targetPoint" />
            <mxPoint as="offset" />
          </mxGeometry>
        </mxCell>
        <mxCell id="VLCRKHYYq3p2HpZZ45hr-13" value="User found" style="html=1;verticalAlign=bottom;endArrow=open;dashed=1;endSize=8;curved=0;rounded=0;" parent="1" edge="1">
          <mxGeometry relative="1" as="geometry">
            <mxPoint x="685" y="190" as="sourcePoint" />
            <mxPoint x="495" y="190" as="targetPoint" />
            <Array as="points">
              <mxPoint x="550" y="190" />
              <mxPoint x="520" y="190" />
            </Array>
          </mxGeometry>
        </mxCell>
        <mxCell id="VLCRKHYYq3p2HpZZ45hr-15" value="User logged in" style="html=1;verticalAlign=bottom;endArrow=open;dashed=1;endSize=8;curved=0;rounded=0;" parent="1" edge="1">
          <mxGeometry relative="1" as="geometry">
            <mxPoint x="485" y="210" as="sourcePoint" />
            <mxPoint x="295" y="210" as="targetPoint" />
          </mxGeometry>
        </mxCell>
        <mxCell id="VLCRKHYYq3p2HpZZ45hr-18" value="" style="endArrow=none;dashed=1;html=1;rounded=0;entryX=0;entryY=0.483;entryDx=0;entryDy=0;entryPerimeter=0;exitX=1;exitY=0.508;exitDx=0;exitDy=0;exitPerimeter=0;" parent="1" edge="1">
          <mxGeometry width="50" height="50" relative="1" as="geometry">
            <mxPoint x="740" y="252.50000000000003" as="sourcePoint" />
            <mxPoint x="90" y="247.50000000000003" as="targetPoint" />
          </mxGeometry>
        </mxCell>
        <mxCell id="VLCRKHYYq3p2HpZZ45hr-19" value="[User Exists]" style="text;html=1;align=center;verticalAlign=middle;resizable=0;points=[];autosize=1;strokeColor=none;fillColor=none;" parent="1" vertex="1">
          <mxGeometry x="85" y="180" width="90" height="30" as="geometry" />
        </mxCell>
        <mxCell id="VLCRKHYYq3p2HpZZ45hr-20" value="[Else]" style="text;html=1;align=center;verticalAlign=middle;resizable=0;points=[];autosize=1;strokeColor=none;fillColor=none;" parent="1" vertex="1">
          <mxGeometry x="90" y="258" width="50" height="30" as="geometry" />
        </mxCell>
        <mxCell id="VLCRKHYYq3p2HpZZ45hr-21" value="User not found" style="html=1;verticalAlign=bottom;endArrow=open;dashed=1;endSize=8;curved=0;rounded=0;" parent="1" edge="1">
          <mxGeometry relative="1" as="geometry">
            <mxPoint x="685" y="270" as="sourcePoint" />
            <mxPoint x="495" y="270" as="targetPoint" />
          </mxGeometry>
        </mxCell>
        <mxCell id="VLCRKHYYq3p2HpZZ45hr-22" value="Login failed" style="html=1;verticalAlign=bottom;endArrow=open;dashed=1;endSize=8;curved=0;rounded=0;" parent="1" source="VLCRKHYYq3p2HpZZ45hr-9" target="VLCRKHYYq3p2HpZZ45hr-8" edge="1">
          <mxGeometry relative="1" as="geometry">
            <mxPoint x="460" y="300" as="sourcePoint" />
            <mxPoint x="400" y="300" as="targetPoint" />
            <Array as="points">
              <mxPoint x="430" y="290" />
            </Array>
          </mxGeometry>
        </mxCell>
        <mxCell id="VLCRKHYYq3p2HpZZ45hr-24" value="Exit or try again" style="html=1;verticalAlign=bottom;endArrow=open;dashed=1;endSize=8;curved=0;rounded=0;" parent="1" edge="1">
          <mxGeometry relative="1" as="geometry">
            <mxPoint x="285" y="314.64" as="sourcePoint" />
            <mxPoint x="130" y="314.64" as="targetPoint" />
          </mxGeometry>
        </mxCell>
        <mxCell id="VLCRKHYYq3p2HpZZ45hr-25" value="Loan details" style="html=1;verticalAlign=bottom;endArrow=block;curved=0;rounded=0;" parent="1" edge="1">
          <mxGeometry x="0.0013" width="80" relative="1" as="geometry">
            <mxPoint x="130" y="350" as="sourcePoint" />
            <mxPoint x="285" y="350" as="targetPoint" />
            <Array as="points">
              <mxPoint x="190" y="350" />
              <mxPoint x="210" y="350" />
            </Array>
            <mxPoint as="offset" />
          </mxGeometry>
        </mxCell>
        <mxCell id="VLCRKHYYq3p2HpZZ45hr-27" value="Validate loan" style="html=1;verticalAlign=bottom;endArrow=block;curved=0;rounded=0;" parent="1" edge="1">
          <mxGeometry width="80" relative="1" as="geometry">
            <mxPoint x="295" y="370" as="sourcePoint" />
            <mxPoint x="485" y="370" as="targetPoint" />
            <Array as="points">
              <mxPoint x="335" y="370" />
              <mxPoint x="360" y="370" />
            </Array>
            <mxPoint as="offset" />
          </mxGeometry>
        </mxCell>
        <mxCell id="VLCRKHYYq3p2HpZZ45hr-28" value="Check if minimum requrements met" style="html=1;verticalAlign=bottom;endArrow=block;curved=0;rounded=0;" parent="1" edge="1">
          <mxGeometry width="80" relative="1" as="geometry">
            <mxPoint x="495" y="390" as="sourcePoint" />
            <mxPoint x="685" y="390" as="targetPoint" />
            <mxPoint as="offset" />
          </mxGeometry>
        </mxCell>
        <mxCell id="VLCRKHYYq3p2HpZZ45hr-30" value="Alternative" style="shape=umlFrame;whiteSpace=wrap;html=1;pointerEvents=0;" parent="1" vertex="1">
          <mxGeometry x="90" y="420" width="650" height="250" as="geometry" />
        </mxCell>
        <mxCell id="VLCRKHYYq3p2HpZZ45hr-31" value="" style="endArrow=none;dashed=1;html=1;rounded=0;entryX=0;entryY=0.483;entryDx=0;entryDy=0;entryPerimeter=0;exitX=1;exitY=0.508;exitDx=0;exitDy=0;exitPerimeter=0;" parent="1" edge="1">
          <mxGeometry width="50" height="50" relative="1" as="geometry">
            <mxPoint x="740" y="553" as="sourcePoint" />
            <mxPoint x="90" y="548" as="targetPoint" />
          </mxGeometry>
        </mxCell>
        <mxCell id="VLCRKHYYq3p2HpZZ45hr-32" value="[Requirements met]" style="text;html=1;align=center;verticalAlign=middle;resizable=0;points=[];autosize=1;strokeColor=none;fillColor=none;" parent="1" vertex="1">
          <mxGeometry x="80" y="450" width="130" height="30" as="geometry" />
        </mxCell>
        <mxCell id="VLCRKHYYq3p2HpZZ45hr-33" value="All are met" style="html=1;verticalAlign=bottom;endArrow=open;dashed=1;endSize=8;curved=0;rounded=0;" parent="1" edge="1">
          <mxGeometry relative="1" as="geometry">
            <mxPoint x="685" y="440" as="sourcePoint" />
            <mxPoint x="495" y="440" as="targetPoint" />
          </mxGeometry>
        </mxCell>
        <mxCell id="VLCRKHYYq3p2HpZZ45hr-35" value="Save application" style="html=1;verticalAlign=bottom;endArrow=block;curved=0;rounded=0;" parent="1" edge="1">
          <mxGeometry width="80" relative="1" as="geometry">
            <mxPoint x="495" y="470" as="sourcePoint" />
            <mxPoint x="685" y="470" as="targetPoint" />
          </mxGeometry>
        </mxCell>
        <mxCell id="VLCRKHYYq3p2HpZZ45hr-36" value="Successful" style="html=1;verticalAlign=bottom;endArrow=open;dashed=1;endSize=8;curved=0;rounded=0;" parent="1" edge="1">
          <mxGeometry relative="1" as="geometry">
            <mxPoint x="685" y="500" as="sourcePoint" />
            <mxPoint x="495" y="500" as="targetPoint" />
          </mxGeometry>
        </mxCell>
        <mxCell id="VLCRKHYYq3p2HpZZ45hr-37" value="" style="html=1;points=[[0,0,0,0,5],[0,1,0,0,-5],[1,0,0,0,5],[1,1,0,0,-5]];perimeter=orthogonalPerimeter;outlineConnect=0;targetShapes=umlLifeline;portConstraint=eastwest;newEdgeStyle={&quot;curved&quot;:0,&quot;rounded&quot;:0};" parent="1" vertex="1">
          <mxGeometry x="285" y="460" width="10" height="180" as="geometry" />
        </mxCell>
        <mxCell id="VLCRKHYYq3p2HpZZ45hr-38" value="Loan req submitted" style="html=1;verticalAlign=bottom;endArrow=open;dashed=1;endSize=8;curved=0;rounded=0;" parent="1" edge="1">
          <mxGeometry relative="1" as="geometry">
            <mxPoint x="485" y="514.63" as="sourcePoint" />
            <mxPoint x="295" y="514.63" as="targetPoint" />
          </mxGeometry>
        </mxCell>
        <mxCell id="VLCRKHYYq3p2HpZZ45hr-39" value="Wait for status update" style="html=1;verticalAlign=bottom;endArrow=block;curved=0;rounded=0;" parent="1" edge="1">
          <mxGeometry width="80" relative="1" as="geometry">
            <mxPoint x="285" y="530" as="sourcePoint" />
            <mxPoint x="129.75925925925924" y="530" as="targetPoint" />
          </mxGeometry>
        </mxCell>
        <mxCell id="VLCRKHYYq3p2HpZZ45hr-40" value="Enter loan details" style="html=1;verticalAlign=bottom;endArrow=block;curved=0;rounded=0;" parent="1" edge="1">
          <mxGeometry width="80" relative="1" as="geometry">
            <mxPoint x="285" y="230" as="sourcePoint" />
            <mxPoint x="129.75925925925924" y="230" as="targetPoint" />
          </mxGeometry>
        </mxCell>
        <mxCell id="VLCRKHYYq3p2HpZZ45hr-41" value="[Else]" style="text;html=1;align=center;verticalAlign=middle;resizable=0;points=[];autosize=1;strokeColor=none;fillColor=none;" parent="1" vertex="1">
          <mxGeometry x="85" y="560" width="50" height="30" as="geometry" />
        </mxCell>
        <mxCell id="VLCRKHYYq3p2HpZZ45hr-42" value="Not met" style="html=1;verticalAlign=bottom;endArrow=open;dashed=1;endSize=8;curved=0;rounded=0;" parent="1" edge="1">
          <mxGeometry relative="1" as="geometry">
            <mxPoint x="685" y="574.63" as="sourcePoint" />
            <mxPoint x="495" y="574.63" as="targetPoint" />
          </mxGeometry>
        </mxCell>
        <mxCell id="VLCRKHYYq3p2HpZZ45hr-43" value="Loan request denied" style="html=1;verticalAlign=bottom;endArrow=open;dashed=1;endSize=8;curved=0;rounded=0;" parent="1" source="VLCRKHYYq3p2HpZZ45hr-3" target="VLCRKHYYq3p2HpZZ45hr-37" edge="1">
          <mxGeometry relative="1" as="geometry">
            <mxPoint x="455" y="620" as="sourcePoint" />
            <mxPoint x="375" y="620" as="targetPoint" />
            <Array as="points">
              <mxPoint x="400" y="600" />
            </Array>
          </mxGeometry>
        </mxCell>
        <mxCell id="VLCRKHYYq3p2HpZZ45hr-44" value="Loan request failed" style="html=1;verticalAlign=bottom;endArrow=block;curved=0;rounded=0;" parent="1" edge="1">
          <mxGeometry width="80" relative="1" as="geometry">
            <mxPoint x="285" y="630" as="sourcePoint" />
            <mxPoint x="129.75925925925924" y="630" as="targetPoint" />
          </mxGeometry>
        </mxCell>
      </root>
    </mxGraphModel>
  </diagram>
</mxfile>
